<svg xmlns="http://www.w3.org/2000/svg" xmlns:xlink="http://www.w3.org/1999/xlink" width="29" height="31" viewBox="0 0 29 31">
  <defs>
    <clipPath id="clip-path">
      <rect id="Rectangle_5" data-name="Rectangle 5" width="29" height="31" transform="translate(29 242)" fill="#fff" stroke="#707070" stroke-width="1"/>
    </clipPath>
  </defs>
  <g id="Mask_Group_3" data-name="Mask Group 3" transform="translate(-29 -242)" clip-path="url(#clip-path)">
    <g id="book" transform="translate(29 243)">
      <g id="Group_2" data-name="Group 2">
        <path id="Path_3" data-name="Path 3" d="M28.438,5.828H26.527V5.176a.562.562,0,0,0-.4-.562A15.834,15.834,0,0,0,22.069,4.1a10.454,10.454,0,0,0-7.577,2.811A10.344,10.344,0,0,0,6.914,4.1a15.834,15.834,0,0,0-4.053.517.562.562,0,0,0-.4.562v.646H.562A.562.562,0,0,0,0,6.385V24.339a.561.561,0,0,0,.838.489A19.819,19.819,0,0,1,14.362,23.7H14.5a.563.563,0,0,0,.135,0,19.483,19.483,0,0,1,13.525,1.124A.562.562,0,0,0,29,24.344V6.39A.562.562,0,0,0,28.438,5.828ZM1.124,23.445V6.952H2.468v14.1a.562.562,0,0,0,.646.562,24.6,24.6,0,0,1,3.513-.281,14.581,14.581,0,0,1,4.8.725A20.665,20.665,0,0,0,1.124,23.445Zm5.5-3.232a24.733,24.733,0,0,0-3.058.2V5.62A15.5,15.5,0,0,1,6.9,5.249,9.178,9.178,0,0,1,13.918,8l.017,14A13.14,13.14,0,0,0,6.627,20.213ZM15.059,8a9.261,9.261,0,0,1,7.015-2.754,15.572,15.572,0,0,1,3.333.371V20.41a24.726,24.726,0,0,0-3.041-.2A13.25,13.25,0,0,0,15.059,22ZM27.87,23.445a20.669,20.669,0,0,0-10.326-1.388,14.616,14.616,0,0,1,4.823-.725,24.592,24.592,0,0,1,3.536.275.562.562,0,0,0,.646-.562V6.952h1.343Z" fill="#13b8f3"/>
      </g>
    </g>
  </g>
</svg>
