<svg xmlns="http://www.w3.org/2000/svg" xmlns:xlink="http://www.w3.org/1999/xlink" width="29" height="31" viewBox="0 0 29 31">
  <defs>
    <clipPath id="clip-path">
      <rect id="Rectangle_8" data-name="Rectangle 8" width="29" height="31" transform="translate(29 382)" fill="#fff" stroke="#707070" stroke-width="1"/>
    </clipPath>
  </defs>
  <g id="Mask_Group_5" data-name="Mask Group 5" transform="translate(-29 -382)" clip-path="url(#clip-path)">
    <g id="friends" transform="translate(29 383)">
      <g id="Group_22" data-name="Group 22">
        <g id="Group_21" data-name="Group 21">
          <path id="Path_10" data-name="Path 10" d="M8.8,3.237A5.466,5.466,0,0,0,3.5,8.849,5.466,5.466,0,0,0,8.8,14.461a5.466,5.466,0,0,0,5.293-5.612A5.466,5.466,0,0,0,8.8,3.237Z" fill="#c508ff"/>
        </g>
      </g>
      <g id="Group_24" data-name="Group 24">
        <g id="Group_23" data-name="Group 23">
          <path id="Path_11" data-name="Path 11" d="M20.832,4.04H20.8A4.391,4.391,0,0,0,17.575,5.5a5.013,5.013,0,0,0,.056,6.759,4.392,4.392,0,0,0,3.209,1.4h.037A4.391,4.391,0,0,0,24.1,12.2a4.928,4.928,0,0,0,1.283-3.39A4.69,4.69,0,0,0,20.832,4.04Z" fill="#c508ff"/>
        </g>
      </g>
      <g id="Group_26" data-name="Group 26">
        <g id="Group_25" data-name="Group 25">
          <path id="Path_12" data-name="Path 12" d="M21.056,14.577h-.44a7.915,7.915,0,0,0-5.325,2.054,10.219,10.219,0,0,1,3.99,7.582H29V22.521A7.953,7.953,0,0,0,21.056,14.577Z" fill="#c508ff"/>
        </g>
      </g>
      <g id="Group_28" data-name="Group 28">
        <g id="Group_27" data-name="Group 27">
          <path id="Path_13" data-name="Path 13" d="M17.578,24.213a8.532,8.532,0,0,0-8.516-8H8.533A8.533,8.533,0,0,0,0,24.751v1.013H17.6V24.751Q17.6,24.48,17.578,24.213Z" fill="#c508ff"/>
        </g>
      </g>
    </g>
  </g>
</svg>
