<svg id="Component_4_3" data-name="Component 4 – 3" xmlns="http://www.w3.org/2000/svg" width="222.115" height="187.96" viewBox="0 0 222.115 187.96">
  <path id="request_icon" d="M113.057,4C77.3,4,30.882,12.96,30.882,12.96l-.117.133A34.085,34.085,0,0,0,2,46.714V149.246a34.171,34.171,0,0,0,28.849,33.687l.033.05s46.415,8.977,82.175,8.977,82.175-8.977,82.175-8.977l.017-.017a34.171,34.171,0,0,0,28.866-33.72V46.714a34.171,34.171,0,0,0-28.849-33.7l-.033-.05S148.818,4,113.057,4ZM87.429,58.661l68.343,39.311L87.429,137.282Z" transform="translate(-2 -4)"/>
  <g id="Polygon_2" data-name="Polygon 2" transform="translate(172.5 54.5) rotate(90)" fill="#fff">
    <path d="M 83.20339965820313 86.5 L 0.7965980768203735 86.5 L 42 1.15009605884552 L 83.20339965820313 86.5 Z" stroke="none"/>
    <path d="M 42 2.300186157226563 L 1.593193054199219 86 L 82.40680694580078 86 L 42 2.300186157226563 M 42 0 L 84 87 L 0 87 L 42 0 Z" stroke="none" fill="#707070"/>
  </g>
</svg>
