<svg xmlns="http://www.w3.org/2000/svg" xmlns:xlink="http://www.w3.org/1999/xlink" width="29" height="31" viewBox="0 0 29 31">
  <defs>
    <clipPath id="clip-path">
      <rect id="Rectangle_9" data-name="Rectangle 9" width="29" height="31" transform="translate(29 454)" fill="#fff" stroke="#707070" stroke-width="1"/>
    </clipPath>
  </defs>
  <g id="Mask_Group_6" data-name="Mask Group 6" transform="translate(-29 -454)" clip-path="url(#clip-path)">
    <g id="settings" transform="translate(29 455)">
      <g id="Group_29" data-name="Group 29">
        <path id="Path_14" data-name="Path 14" d="M27.516,11.456,25.48,11.11a11.494,11.494,0,0,0-.818-1.975l1.2-1.678a1.786,1.786,0,0,0-.194-2.308L23.863,3.344A1.778,1.778,0,0,0,22.6,2.817a1.76,1.76,0,0,0-1.036.333l-1.684,1.2a11.374,11.374,0,0,0-2.048-.842L17.49,1.5A1.79,1.79,0,0,0,15.721,0H13.17A1.79,1.79,0,0,0,11.4,1.5l-.351,2.06a11.21,11.21,0,0,0-1.969.83l-1.666-1.2a1.789,1.789,0,0,0-2.308.194L3.3,5.186A1.793,1.793,0,0,0,3.1,7.494L4.313,9.2a11.226,11.226,0,0,0-.806,1.981L1.5,11.516A1.79,1.79,0,0,0,0,13.285v2.55A1.79,1.79,0,0,0,1.5,17.6l2.06.351a11.21,11.21,0,0,0,.83,1.969l-1.193,1.66a1.786,1.786,0,0,0,.194,2.308L5.192,25.7a1.778,1.778,0,0,0,1.266.527,1.76,1.76,0,0,0,1.036-.333l1.7-1.212a11.46,11.46,0,0,0,1.914.788L11.45,27.5A1.79,1.79,0,0,0,13.219,29h2.556a1.79,1.79,0,0,0,1.769-1.5l.345-2.036a11.493,11.493,0,0,0,1.975-.818l1.678,1.2a1.778,1.778,0,0,0,1.042.333h0a1.778,1.778,0,0,0,1.266-.527l1.805-1.805a1.793,1.793,0,0,0,.194-2.308l-1.2-1.684a11.411,11.411,0,0,0,.818-1.975l2.036-.339A1.79,1.79,0,0,0,29,15.775v-2.55A1.768,1.768,0,0,0,27.516,11.456Zm-.139,4.319a.157.157,0,0,1-.133.158l-2.544.424a.813.813,0,0,0-.654.6,9.7,9.7,0,0,1-1.054,2.538.819.819,0,0,0,.036.891l1.5,2.108a.165.165,0,0,1-.018.206L22.7,24.5a.154.154,0,0,1-.115.048.149.149,0,0,1-.091-.03l-2.1-1.5a.819.819,0,0,0-.891-.036,9.7,9.7,0,0,1-2.538,1.054.8.8,0,0,0-.6.654l-.43,2.544a.157.157,0,0,1-.158.133h-2.55a.157.157,0,0,1-.158-.133L12.643,24.7a.813.813,0,0,0-.6-.654A10.07,10.07,0,0,1,9.56,23.027a.839.839,0,0,0-.412-.109.8.8,0,0,0-.473.151l-2.12,1.508a.18.18,0,0,1-.091.03.162.162,0,0,1-.115-.048L4.544,22.754a.164.164,0,0,1-.018-.206l1.49-2.09a.829.829,0,0,0,.036-.9,9.607,9.607,0,0,1-1.066-2.532.83.83,0,0,0-.654-.6l-2.563-.436a.157.157,0,0,1-.133-.158v-2.55a.157.157,0,0,1,.133-.158L4.3,12.7a.819.819,0,0,0,.66-.606A9.688,9.688,0,0,1,5.991,9.554a.809.809,0,0,0-.042-.884L4.441,6.549a.165.165,0,0,1,.018-.206L6.264,4.538a.154.154,0,0,1,.115-.048.149.149,0,0,1,.091.03L8.56,6.01a.829.829,0,0,0,.9.036A9.607,9.607,0,0,1,11.989,4.98a.83.83,0,0,0,.6-.654l.436-2.563a.157.157,0,0,1,.158-.133h2.55a.157.157,0,0,1,.158.133l.424,2.526a.819.819,0,0,0,.606.66,9.833,9.833,0,0,1,2.6,1.066.819.819,0,0,0,.891-.036l2.09-1.5a.18.18,0,0,1,.091-.03.162.162,0,0,1,.115.048L24.511,6.3a.164.164,0,0,1,.018.206l-1.5,2.1A.819.819,0,0,0,23,9.5a9.7,9.7,0,0,1,1.054,2.538.8.8,0,0,0,.654.6l2.544.43a.157.157,0,0,1,.133.158v2.55Z"/>
        <path id="Path_15" data-name="Path 15" d="M14.5,8.239A6.258,6.258,0,1,0,20.761,14.5,6.262,6.262,0,0,0,14.5,8.239Zm0,10.88A4.622,4.622,0,1,1,19.125,14.5,4.625,4.625,0,0,1,14.5,19.119Z"/>
      </g>
    </g>
  </g>
</svg>
